<svg xmlns="http://www.w3.org/2000/svg" width="26" height="45" viewBox="0 0 26 45">
  <g id="Groupe_11" data-name="Groupe 11" transform="translate(-5039 -9)">
    <path id="icons8_battery" d="M17,21a1,1,0,0,0-1,1V42a1,1,0,0,0,1,1H33a1,1,0,0,0,1-1V22a1,1,0,0,0-1-1Z" transform="translate(5027 7)" fill="#636060"/>
    <path id="icons8_battery-2" data-name="icons8_battery" d="M21,2a1,1,0,0,0-1,1V5H17a5.015,5.015,0,0,0-5,5V42a5.015,5.015,0,0,0,5,5H33a5.015,5.015,0,0,0,5-5V10a5.015,5.015,0,0,0-5-5H30V3a1,1,0,0,0-1-1Zm1,2h6V6a1,1,0,0,0,1,1h4a2.985,2.985,0,0,1,3,3V42a2.985,2.985,0,0,1-3,3H17a2.985,2.985,0,0,1-3-3V10a2.985,2.985,0,0,1,3-3h4a1,1,0,0,0,1-1Z" transform="translate(5027 7)" fill="#636060"/>
  </g>
</svg>
