<svg xmlns="http://www.w3.org/2000/svg" width="26" height="26" viewBox="0 0 26 26">
  <path id="icons8_alarm" d="M15,3a2,2,0,0,0-2,2v.293A7,7,0,0,0,8,12v2.758A10.24,10.24,0,0,1,5,22a1,1,0,0,0,0,2H25a1,1,0,0,0,0-2,10.24,10.24,0,0,1-3-7.242V12a7,7,0,0,0-5-6.707V5A2,2,0,0,0,15,3ZM3.955,7.988a1,1,0,0,0-.85.564A10.867,10.867,0,0,0,2,13a10.867,10.867,0,0,0,1.105,4.447,1,1,0,0,0,1.789-.895A9.885,9.885,0,0,1,4,13a9.885,9.885,0,0,1,.895-3.553,1,1,0,0,0-.939-1.459Zm22.061,0a1,1,0,0,0-.91,1.459A9.886,9.886,0,0,1,26,13a9.885,9.885,0,0,1-.895,3.553,1,1,0,1,0,1.789.895A10.868,10.868,0,0,0,28,13a10.867,10.867,0,0,0-1.105-4.447,1,1,0,0,0-.879-.564ZM12,26a3,3,0,0,0,6,0Z" transform="translate(-2 -3)" fill="#828282"/>
</svg>
