<svg xmlns="http://www.w3.org/2000/svg" width="58.156" height="34.418" viewBox="0 0 58.156 34.418">
  <path id="icons8_google_glass" d="M8.364,6a5.32,5.32,0,0,0-5.14,4.013h.005l-1.9,7.576a7.94,7.94,0,0,0-.222,1.649H1v5.3a2.649,2.649,0,0,0,2.648,2.648H11.59a2.649,2.649,0,0,0,2.648-2.648V21.885h5.3v2.648a7.952,7.952,0,0,1-7.943,7.943H2.862l.486,3.4a5.322,5.322,0,0,0,5.243,4.545H20.159a5.309,5.309,0,0,0,5.109-3.9l4.008-14.634h1.7l4.008,14.634a5.324,5.324,0,0,0,5.109,3.9H51.656A5.328,5.328,0,0,0,56.9,35.873v-.005l2.177-15.229a7.905,7.905,0,0,0-.16-3.051v-.005l-1.9-7.576A5.321,5.321,0,0,0,51.883,6H35.418v5.3H51.883l1.329,5.3H7.04l1.324-5.3H24.828V6Z" transform="translate(-1 -6)" fill="#fff"/>
</svg>
