<svg xmlns="http://www.w3.org/2000/svg" width="44.001" height="44" viewBox="0 0 44.001 44">
  <path id="icons8_brainstorm_skill" d="M24.922,3C14.344,3,8.6,8.276,7.365,19.127L3.338,26.066a2.59,2.59,0,0,0,1.041,3.574L7.42,31.162l.98,6.781C8.805,40.475,11.113,43.1,13.963,43H17v4H37V40.594a14.639,14.639,0,0,1,2.8-8.367,12.074,12.074,0,0,0,.865-1.441A2.187,2.187,0,0,0,42,28.818V22.455a2.118,2.118,0,0,1,.563-1.469A21.329,21.329,0,0,1,44.2,19.367,8.464,8.464,0,0,0,47,12.91,10.01,10.01,0,0,0,32.193,4.225,20.82,20.82,0,0,0,24.922,3ZM37,5a7.939,7.939,0,0,1,8,7.91,6.051,6.051,0,0,1-2.2,5.02A19.212,19.212,0,0,0,41,19.738a4.332,4.332,0,0,0-1,2.717V25H38V16.414l2.707-2.707a1,1,0,1,0-1.414-1.414L37,14.586l-2.293-2.293a1,1,0,1,0-1.414,1.414L36,16.414V25H34V22.453a3.754,3.754,0,0,0-1.023-2.437c-.545-.633-1.175-1.163-1.762-1.762A6.8,6.8,0,0,1,29,12.908,7.938,7.938,0,0,1,37,5ZM34,27h6v1.818c0,.149-.034.182-.285.182h-5.43c-.252,0-.285-.033-.285-.182Zm1.271,4h3.455a1.993,1.993,0,0,1-1.08.885c-.029.01-.056.016-.086.025a1.794,1.794,0,0,1-1.121,0c-.029-.009-.058-.015-.086-.025A1.992,1.992,0,0,1,35.271,31Z" transform="translate(-2.999 -3)" fill="#fff"/>
</svg>
