<svg width="216" height="273" viewBox="0 0 216 273" fill="none" xmlns="http://www.w3.org/2000/svg">
<path d="M187 273H29C12.9837 273 0 260.016 0 244V29C0 12.9837 12.9837 0 29 0H134L216 81V244C216 260.016 203.016 273 187 273Z" fill="white"/>
<path fill-rule="evenodd" clip-rule="evenodd" d="M139 18.9952V52C139 65.2548 149.745 76 163 76H196.709L139 18.9952ZM134 0L216 81V244C216 260.016 203.016 273 187 273H29C12.9837 273 0 260.016 0 244V29C0 12.9837 12.9837 0 29 0H134ZM129 10H29C18.5066 10 10 18.5066 10 29V244C10 254.493 18.5066 263 29 263H187C197.493 263 206 254.493 206 244V86H163C144.222 86 129 70.7777 129 52V10Z" fill="#2A649E"/>
<mask id="mask0_217_968" style="mask-type:alpha" maskUnits="userSpaceOnUse" x="10" y="10" width="196" height="253">
<path fill-rule="evenodd" clip-rule="evenodd" d="M29 10H187C197.493 10 206 18.5066 206 29V244C206 254.493 197.493 263 187 263H29C18.5066 263 10 254.493 10 244V29C10 18.5066 18.5066 10 29 10Z" fill="white"/>
</mask>
<g mask="url(#mask0_217_968)">
<path d="M53 128L10 169V263H206.5V135.5L153 95L89 159L53 128Z" fill="#DEF9FF"/>
</g>
<path d="M91 84.5C91 97.4787 80.4787 108 67.5 108C54.5213 108 44 97.4787 44 84.5C44 71.5213 54.5213 61 67.5 61C80.4787 61 91 71.5213 91 84.5Z" fill="#DEF9FF"/>
</svg>
