<svg width="216" height="273" viewBox="0 0 216 273" fill="none" xmlns="http://www.w3.org/2000/svg">
<path d="M187 273H29C12.9837 273 0 260.016 0 244V29C0 12.9837 12.9837 0 29 0H134L216 81V244C216 260.016 203.016 273 187 273Z" fill="white"/>
<path fill-rule="evenodd" clip-rule="evenodd" d="M139 18.9952V52C139 65.2548 149.745 76 163 76H196.709L139 18.9952ZM134 0L216 81V244C216 260.016 203.016 273 187 273H29C12.9837 273 0 260.016 0 244V29C0 12.9837 12.9837 0 29 0H134ZM129 10H29C18.5066 10 10 18.5066 10 29V244C10 254.493 18.5066 263 29 263H187C197.493 263 206 254.493 206 244V86H163C144.222 86 129 70.7777 129 52V10Z" fill="#C348BE"/>
<path d="M71.5303 233.65L89.9141 211.653H74.1182C73.0114 211.653 72.1732 211.409 71.6035 210.921C71.0501 210.433 70.7734 209.79 70.7734 208.992C70.7734 208.162 71.0501 207.495 71.6035 206.99C72.1732 206.469 73.0114 206.209 74.1182 206.209H94.4795C97.1162 206.209 98.4346 207.438 98.4346 209.896C98.4346 211.067 98.2148 212.003 97.7754 212.703C97.3359 213.403 96.4489 214.534 95.1143 216.097L77.9268 236.556H96.8721C97.9951 236.556 98.8333 236.792 99.3867 237.264C99.9401 237.719 100.217 238.362 100.217 239.192C100.217 240.055 99.9401 240.739 99.3867 241.243C98.8333 241.748 97.9951 242 96.8721 242H73.6299C72.0511 242 70.863 241.65 70.0654 240.95C69.2679 240.234 68.8691 239.282 68.8691 238.094C68.8691 237.687 68.9342 237.312 69.0645 236.971C69.1947 236.629 69.3656 236.312 69.5771 236.019C69.805 235.709 70.1143 235.327 70.5049 234.871C70.8955 234.399 71.2373 233.992 71.5303 233.65Z" fill="#C348BE"/>
<path d="M104.35 238.191V209.993C104.35 208.528 104.683 207.43 105.351 206.697C106.018 205.965 106.881 205.599 107.938 205.599C109.029 205.599 109.908 205.965 110.575 206.697C111.259 207.413 111.601 208.512 111.601 209.993V238.191C111.601 239.673 111.259 240.779 110.575 241.512C109.908 242.244 109.029 242.61 107.938 242.61C106.897 242.61 106.034 242.244 105.351 241.512C104.683 240.763 104.35 239.656 104.35 238.191Z" fill="#C348BE"/>
<path d="M132.872 228.06H126.231V238.191C126.231 239.64 125.89 240.739 125.206 241.487C124.522 242.236 123.66 242.61 122.618 242.61C121.528 242.61 120.649 242.244 119.981 241.512C119.314 240.763 118.98 239.673 118.98 238.24V210.652C118.98 209.057 119.347 207.918 120.079 207.234C120.812 206.551 121.975 206.209 123.57 206.209H132.872C135.623 206.209 137.739 206.421 139.22 206.844C140.685 207.251 141.946 207.926 143.004 208.87C144.078 209.814 144.892 210.97 145.445 212.337C145.999 213.704 146.275 215.242 146.275 216.951C146.275 220.597 145.152 223.364 142.906 225.252C140.66 227.124 137.315 228.06 132.872 228.06ZM131.114 211.653H126.231V222.591H131.114C132.823 222.591 134.247 222.412 135.387 222.054C136.542 221.696 137.421 221.11 138.023 220.296C138.626 219.482 138.927 218.416 138.927 217.098C138.927 215.519 138.463 214.233 137.535 213.24C136.493 212.182 134.353 211.653 131.114 211.653Z" fill="#C348BE"/>
<path d="M69 10H81V18H69V10Z" fill="#EDCCEC"/>
<path d="M69 42H81V50H69V42Z" fill="#EDCCEC"/>
<path d="M69 26H81V34H69V26Z" fill="#EDCCEC"/>
<path d="M69 58H81V66H69V58Z" fill="#EDCCEC"/>
<path d="M69 74H81V82H69V74Z" fill="#EDCCEC"/>
<path d="M81 18H93V26H81V18Z" fill="#EDCCEC"/>
<path d="M81 50H93V58H81V50Z" fill="#EDCCEC"/>
<path d="M81 34H93V42H81V34Z" fill="#EDCCEC"/>
<path d="M81 66H93V74H81V66Z" fill="#EDCCEC"/>
<path d="M81 82H93V90H81V82Z" fill="#EDCCEC"/>
<path d="M74 90H88V108H74V90Z" fill="#EDCCEC"/>
<path fill-rule="evenodd" clip-rule="evenodd" d="M81 145C90.3888 145 98 136.302 98 125.571C98 114.841 90.3888 94 81 94C71.6112 94 64 114.841 64 125.571C64 136.302 71.6112 145 81 145ZM80.5 137C84.6421 137 88 133.642 88 129.5C88 125.358 84.6421 122 80.5 122C76.3579 122 73 125.358 73 129.5C73 133.642 76.3579 137 80.5 137Z" fill="#EDCCEC"/>
</svg>
