<svg width="216" height="273" viewBox="0 0 216 273" fill="none" xmlns="http://www.w3.org/2000/svg">
<path d="M187 273H29C12.9837 273 0 260.016 0 244V29C0 12.9837 12.9837 0 29 0H134L216 81V244C216 260.016 203.016 273 187 273Z" fill="white"/>
<path fill-rule="evenodd" clip-rule="evenodd" d="M139 18.9952V52C139 65.2548 149.745 76 163 76H196.709L139 18.9952ZM134 0L216 81V244C216 260.016 203.016 273 187 273H29C12.9837 273 0 260.016 0 244V29C0 12.9837 12.9837 0 29 0H134ZM129 10H29C18.5066 10 10 18.5066 10 29V244C10 254.493 18.5066 263 29 263H187C197.493 263 206 254.493 206 244V86H163C144.222 86 129 70.7777 129 52V10Z" fill="#C34848"/>
<path d="M76.7549 228.06H70.1143V238.191C70.1143 239.64 69.7725 240.739 69.0889 241.487C68.4053 242.236 67.5426 242.61 66.501 242.61C65.4105 242.61 64.5316 242.244 63.8643 241.512C63.1969 240.763 62.8633 239.673 62.8633 238.24V210.652C62.8633 209.057 63.2295 207.918 63.9619 207.234C64.6943 206.551 65.8581 206.209 67.4531 206.209H76.7549C79.5055 206.209 81.6214 206.421 83.1025 206.844C84.5674 207.251 85.8288 207.926 86.8867 208.87C87.9609 209.814 88.7747 210.97 89.3281 212.337C89.8815 213.704 90.1582 215.242 90.1582 216.951C90.1582 220.597 89.0352 223.364 86.7891 225.252C84.543 227.124 81.1982 228.06 76.7549 228.06ZM74.9971 211.653H70.1143V222.591H74.9971C76.7061 222.591 78.1302 222.412 79.2695 222.054C80.4251 221.696 81.304 221.11 81.9062 220.296C82.5085 219.482 82.8096 218.416 82.8096 217.098C82.8096 215.519 82.3457 214.233 81.418 213.24C80.3763 212.182 78.236 211.653 74.9971 211.653Z" fill="#C34848"/>
<path d="M99.9551 206.209H109.403C111.861 206.209 113.969 206.437 115.727 206.893C117.484 207.348 119.079 208.203 120.512 209.456C124.239 212.646 126.103 217.496 126.103 224.007C126.103 226.155 125.915 228.117 125.541 229.891C125.167 231.665 124.589 233.268 123.808 234.7C123.026 236.116 122.025 237.386 120.805 238.509C119.844 239.371 118.795 240.063 117.655 240.584C116.516 241.105 115.287 241.471 113.969 241.683C112.667 241.894 111.194 242 109.55 242H100.102C98.7832 242 97.7904 241.805 97.123 241.414C96.4557 241.007 96.0163 240.446 95.8047 239.729C95.6094 238.997 95.5117 238.053 95.5117 236.897V210.652C95.5117 209.09 95.8617 207.959 96.5615 207.259C97.2614 206.559 98.3926 206.209 99.9551 206.209ZM102.763 211.946V236.238H108.256C109.46 236.238 110.404 236.206 111.088 236.141C111.771 236.076 112.479 235.913 113.212 235.652C113.944 235.392 114.579 235.026 115.116 234.554C117.541 232.503 118.754 228.971 118.754 223.958C118.754 220.426 118.217 217.781 117.143 216.023C116.085 214.266 114.774 213.151 113.212 212.679C111.649 212.19 109.761 211.946 107.548 211.946H102.763Z" fill="#C34848"/>
<path d="M153.111 211.8H138.829V220.955H150.768C151.874 220.955 152.696 221.207 153.233 221.712C153.787 222.2 154.063 222.859 154.063 223.689C154.063 224.52 153.787 225.179 153.233 225.667C152.68 226.155 151.858 226.399 150.768 226.399H138.829V238.191C138.829 239.689 138.487 240.804 137.804 241.536C137.136 242.252 136.274 242.61 135.216 242.61C134.142 242.61 133.263 242.244 132.579 241.512C131.912 240.779 131.578 239.673 131.578 238.191V210.652C131.578 209.611 131.733 208.764 132.042 208.113C132.351 207.446 132.831 206.966 133.482 206.673C134.15 206.364 134.996 206.209 136.021 206.209H153.111C154.267 206.209 155.121 206.469 155.675 206.99C156.244 207.495 156.529 208.162 156.529 208.992C156.529 209.839 156.244 210.522 155.675 211.043C155.121 211.548 154.267 211.8 153.111 211.8Z" fill="#C34848"/>
<path fill-rule="evenodd" clip-rule="evenodd" d="M46 175C46 171.686 48.6863 169 52 169H125C128.314 169 131 171.686 131 175C131 178.314 128.314 181 125 181H52C48.6863 181 46 178.314 46 175Z" fill="#FFB6B6"/>
<path fill-rule="evenodd" clip-rule="evenodd" d="M46 107C46 103.686 48.6863 101 52 101H165C168.314 101 171 103.686 171 107C171 110.314 168.314 113 165 113H52C48.6863 113 46 110.314 46 107Z" fill="#FFB6B6"/>
<path fill-rule="evenodd" clip-rule="evenodd" d="M46 141C46 137.686 48.6863 135 52 135H165C168.314 135 171 137.686 171 141C171 144.314 168.314 147 165 147H52C48.6863 147 46 144.314 46 141Z" fill="#FFB6B6"/>
</svg>
