<svg xmlns="http://www.w3.org/2000/svg" width="65" height="65" viewBox="0 0 65 65">
  <g id="Groupe_11" data-name="Groupe 11" transform="translate(-1290 75)">
    <circle id="Ellipse_7" data-name="Ellipse 7" cx="32.5" cy="32.5" r="32.5" transform="translate(1290 -75)" fill="#fff"/>
    <path id="icons8-building" d="M27.22,0H7.819A1.822,1.822,0,0,0,6,1.819v28.5H29.039V1.819A1.822,1.822,0,0,0,27.22,0ZM19.339,13.945V10.307H24.8v3.638ZM24.8,16.37v3.638H19.339V16.37ZM19.339,7.882V4.244H24.8V7.882Zm-9.094,6.063V10.307H15.7v3.638ZM15.7,16.37v3.638H10.244V16.37ZM10.244,7.882V4.244H15.7V7.882Zm0,14.551H15.7v3.638H10.244Zm9.094,0H24.8V29.1H19.339Z" transform="translate(1304.98 -57.657)" fill="#646464"/>
  </g>
</svg>
