<svg xmlns="http://www.w3.org/2000/svg" width="65" height="65" viewBox="0 0 65 65">
  <g id="Groupe_12" data-name="Groupe 12" transform="translate(-1448 75)">
    <circle id="Ellipse_6" data-name="Ellipse 6" cx="32.5" cy="32.5" r="32.5" transform="translate(1448 -75)" fill="#fff"/>
    <path id="icons8-online_shop" d="M4.549,3V8.1L2,14.471v2.549H3.275v8.922H26.217V17.021h1.275V14.471L24.943,8.1V3ZM8.373,5.549A1.275,1.275,0,1,1,7.1,6.824,1.275,1.275,0,0,1,8.373,5.549Zm3.824,0a1.275,1.275,0,1,1-1.275,1.275A1.275,1.275,0,0,1,12.2,5.549ZM5.824,17.021H23.668v6.373H5.824Z" transform="translate(1465.754 -56.971)" fill="#969696"/>
  </g>
</svg>
