<svg xmlns="http://www.w3.org/2000/svg" width="65" height="65" viewBox="0 0 65 65">
  <g id="Groupe_3" data-name="Groupe 3" transform="translate(-1132 210)">
    <circle id="Ellipse_2" data-name="Ellipse 2" cx="32.5" cy="32.5" r="32.5" transform="translate(1132 -210)" fill="#fff"/>
    <path id="icons8-manager" d="M19.9,20.923a1.4,1.4,0,0,1-.927-2.142,9.54,9.54,0,0,0,1.7-3.448,4.681,4.681,0,0,0,1.674-3.1c.1-1.858-.344-1.943-.344-1.943.663-2.028.877-9.636-4.026-8.724-.817-1.6-5.944-2.85-8.331,1.405a8.945,8.945,0,0,0-.708,7.374c-.035.174-.329-.174-.438.917A5.667,5.667,0,0,0,9.4,14.52a2.2,2.2,0,0,0,.837.618,8.529,8.529,0,0,0,1.784,3.642,2.029,2.029,0,0,1-1.061,2.142c-4.629.887-8.884,3.443-8.884,6.213v2.142c0,3,7.03,3.647,13.353,3.647s13.3-1.809,13.3-3.647V27.136C28.73,24.365,24.525,21.809,19.9,20.923Zm-6.482,10.7a12.2,12.2,0,0,1,1.574-6.054l-1.614-.9C13.379,23.9,15.4,23,15.4,23s1.938.857,1.938,1.674l-1.535.9a12.461,12.461,0,0,1,1.54,6.089C17.345,32.158,13.419,32.043,13.419,31.625Z" transform="translate(1149.098 -193.996)" fill="#f96e42"/>
  </g>
</svg>
