<svg xmlns="http://www.w3.org/2000/svg" width="65" height="65" viewBox="0 0 65 65">
  <g id="Groupe_2" data-name="Groupe 2" transform="translate(-973 210)">
    <circle id="Ellipse_3" data-name="Ellipse 3" cx="32.5" cy="32.5" r="32.5" transform="translate(973 -210)" fill="#fff"/>
    <path id="icons8-police" d="M18.269,3C14.927,3,10.675,8.189,5.3,8.189A1.3,1.3,0,0,0,4.1,9.993a13.016,13.016,0,0,0,2.49,3.385H29.943A13.07,13.07,0,0,0,32.431,10a1.3,1.3,0,0,0-1.191-1.811C25.863,8.189,21.61,3,18.269,3ZM16.323,6.892h3.892a4.864,4.864,0,0,1-1.946,3.892A4.864,4.864,0,0,1,16.323,6.892Zm-9.729,9.08v8.822a4.629,4.629,0,0,0,1.48,3.5,2.289,2.289,0,0,0,.965.53c.334.875,2.619,6.509,9.085,6.595a1.447,1.447,0,0,0,.3,0c6.46-.09,8.744-5.72,9.078-6.595a2.289,2.289,0,0,0,.965-.53,4.629,4.629,0,0,0,1.48-3.5V15.972Zm20.55,3.461a33.372,33.372,0,0,1,.205,4.322v1.039a1.776,1.776,0,0,1-.6,1.553,1.318,1.318,0,0,1-.5.3l-.692.172-.225.674s-1.709,5.341-7.071,5.341S11.2,27.494,11.2,27.494l-.225-.674-.692-.172a1.318,1.318,0,0,1-.5-.3,1.776,1.776,0,0,1-.6-1.553V23.2A8.3,8.3,0,0,1,9.8,19.8c1.692,1.533,4.909,3.955,8.47,3.955C22.116,23.755,25.6,20.907,27.144,19.433Z" transform="translate(987.231 -196.715)" fill="#fd3170"/>
  </g>
</svg>
