<svg xmlns="http://www.w3.org/2000/svg" width="42.324" height="36.057" viewBox="0 0 42.324 36.057">
  <path id="icons8_protective_glasses" d="M30.963,8.438l.4-.4,7.94,9.074h4.354L32.675,4.56A1.643,1.643,0,0,0,31.5,4a1.587,1.587,0,0,0-1.213.479L28.645,6.119a1.639,1.639,0,0,0,2.317,2.319ZM7.2,17.112l7.94-9.074.4.4A1.639,1.639,0,0,0,17.852,6.12L16.213,4.482A1.576,1.576,0,0,0,15,4a1.643,1.643,0,0,0-1.178.559L2.839,17.112ZM2.087,20.389,3.469,35.583a4.891,4.891,0,0,0,4.9,4.472H16.2A4.906,4.906,0,0,0,20.981,36.3a1.508,1.508,0,0,1,1.472-1.159h1.595A1.511,1.511,0,0,1,25.519,36.3,4.9,4.9,0,0,0,30.3,40.055h7.837a4.891,4.891,0,0,0,4.9-4.472l1.382-15.193Z" transform="translate(-2.087 -3.998)" fill="#fff"/>
</svg>
