<svg xmlns="http://www.w3.org/2000/svg" width="40.209" height="40.209" viewBox="0 0 40.209 40.209">
  <path id="icons8_male_user" d="M20.1,0a20.1,20.1,0,1,0,20.1,20.1A20.128,20.128,0,0,0,20.1,0Zm0,3.093A17,17,0,0,1,32.67,31.559c-1.16-2.133-4.573-3.885-8.216-4.64a1.48,1.48,0,0,1-.967-2.175,8.463,8.463,0,0,0,1.74-3.383,4.968,4.968,0,0,0,1.692-3.093c.157-1.7-.338-1.885-.338-1.885.616-2.012.785-9.581-4.011-8.651C21.8,6.186,16.722,4.96,14.4,9.134c-1.081,2.012-1.565,4.942-.483,7.1,0,.157-.326-.163-.483.918a6.654,6.654,0,0,0,.967,3.238,1.6,1.6,0,0,0,.773.628A8.406,8.406,0,0,0,16.867,24.6a2.154,2.154,0,0,1-1.112,2.175c-3.77.755-7.195,2.507-8.361,4.64A17.013,17.013,0,0,1,20.1,3.093Z" fill="#fff"/>
</svg>
