<svg id="Groupe_4" data-name="Groupe 4" xmlns="http://www.w3.org/2000/svg" width="330" height="52" viewBox="0 0 330 52">
  <g id="Rectangle_6" data-name="Rectangle 6" fill="#060606" stroke="#707070" stroke-width="1">
    <rect width="330" height="52" rx="4" stroke="none"/>
    <rect x="0.5" y="0.5" width="329" height="51" rx="3.5" fill="none"/>
  </g>
  <path id="icons8_Google" d="M14.416,6a7.9,7.9,0,1,0,0,15.8c6.589,0,8.074-6.117,7.456-9.215H14.415v2.633h5.093a5.268,5.268,0,1,1-1.641-5.286l1.87-1.87A7.872,7.872,0,0,0,14.416,6Z" transform="translate(14.484 12)" fill="#fff"/>
  <path id="Tracé_12" data-name="Tracé 12" d="M6.82-.352A4.928,4.928,0,0,1,4.5.141,3.742,3.742,0,0,1,1.629-1.014,4.259,4.259,0,0,1,.551-4.043,4.464,4.464,0,0,1,1.764-7.3,4.117,4.117,0,0,1,4.84-8.543,4.932,4.932,0,0,1,6.82-8.2v1.049a4.016,4.016,0,0,0-1.992-.5,3.057,3.057,0,0,0-2.347.967,3.642,3.642,0,0,0-.9,2.584,3.465,3.465,0,0,0,.841,2.446,2.861,2.861,0,0,0,2.206.911A4.139,4.139,0,0,0,6.82-1.307Zm4.09.492A2.783,2.783,0,0,1,8.786-.7,3.114,3.114,0,0,1,7.992-2.93a3.244,3.244,0,0,1,.826-2.361,2.97,2.97,0,0,1,2.232-.85,2.691,2.691,0,0,1,2.095.826A3.276,3.276,0,0,1,13.9-3.023a3.223,3.223,0,0,1-.812,2.3A2.844,2.844,0,0,1,10.91.141Zm.07-5.473a1.828,1.828,0,0,0-1.465.63,2.587,2.587,0,0,0-.539,1.737,2.447,2.447,0,0,0,.545,1.682,1.852,1.852,0,0,0,1.459.615,1.757,1.757,0,0,0,1.433-.6,2.619,2.619,0,0,0,.5-1.717,2.664,2.664,0,0,0-.5-1.734A1.749,1.749,0,0,0,10.98-5.332ZM20.414,0h-.961V-3.422q0-1.91-1.395-1.91a1.513,1.513,0,0,0-1.192.542,2.009,2.009,0,0,0-.472,1.368V0h-.961V-6h.961v1h.023a2.166,2.166,0,0,1,1.969-1.137,1.836,1.836,0,0,1,1.506.636,2.832,2.832,0,0,1,.521,1.837Zm4.594-.059a1.853,1.853,0,0,1-.9.188q-1.576,0-1.576-1.758V-5.18H21.5V-6h1.031V-7.465l.961-.311V-6h1.512v.82H23.5V-1.8a1.4,1.4,0,0,0,.205.861.818.818,0,0,0,.68.258,1.01,1.01,0,0,0,.627-.2Zm1.775-7.465a.609.609,0,0,1-.439-.176.593.593,0,0,1-.182-.445.6.6,0,0,1,.182-.448.6.6,0,0,1,.439-.179.621.621,0,0,1,.448.179.6.6,0,0,1,.185.448.594.594,0,0,1-.185.439A.615.615,0,0,1,26.783-7.523ZM27.252,0h-.961V-6h.961Zm6.926,0h-.961V-3.422q0-1.91-1.395-1.91a1.513,1.513,0,0,0-1.192.542,2.009,2.009,0,0,0-.472,1.368V0H29.2V-6h.961v1h.023A2.166,2.166,0,0,1,32.15-6.141a1.836,1.836,0,0,1,1.506.636,2.832,2.832,0,0,1,.521,1.837ZM40.84,0h-.961V-.949h-.023A1.973,1.973,0,0,1,38,.141q-2.145,0-2.145-2.555V-6h.955v3.434q0,1.9,1.453,1.9a1.47,1.47,0,0,0,1.157-.519,1.984,1.984,0,0,0,.454-1.356V-6h.961ZM47.6-2.76H43.365A2.244,2.244,0,0,0,43.9-1.213a1.858,1.858,0,0,0,1.418.545,2.948,2.948,0,0,0,1.863-.668v.9a3.482,3.482,0,0,1-2.092.574,2.536,2.536,0,0,1-2-.817,3.346,3.346,0,0,1-.727-2.3,3.281,3.281,0,0,1,.794-2.282,2.546,2.546,0,0,1,1.972-.882,2.256,2.256,0,0,1,1.822.762A3.176,3.176,0,0,1,47.6-3.264Zm-.984-.814a1.955,1.955,0,0,0-.4-1.295,1.368,1.368,0,0,0-1.1-.463,1.552,1.552,0,0,0-1.154.486,2.207,2.207,0,0,0-.586,1.271ZM59.9-6,58.1,0h-1L55.869-4.295a2.8,2.8,0,0,1-.094-.557h-.023a2.628,2.628,0,0,1-.123.545L54.287,0h-.961L51.51-6h1.008L53.76-1.488a2.718,2.718,0,0,1,.082.539h.047a2.521,2.521,0,0,1,.105-.551L55.377-6h.879L57.5-1.477a3.229,3.229,0,0,1,.088.539h.047a2.493,2.493,0,0,1,.1-.539L58.951-6Zm1.605-1.523a.609.609,0,0,1-.439-.176.593.593,0,0,1-.182-.445.6.6,0,0,1,.182-.448.6.6,0,0,1,.439-.179.621.621,0,0,1,.448.179.6.6,0,0,1,.185.448.594.594,0,0,1-.185.439A.615.615,0,0,1,61.506-7.523ZM61.975,0h-.961V-6h.961ZM66.7-.059a1.853,1.853,0,0,1-.9.188q-1.576,0-1.576-1.758V-5.18H63.2V-6H64.23V-7.465l.961-.311V-6H66.7v.82H65.191V-1.8a1.4,1.4,0,0,0,.205.861.818.818,0,0,0,.68.258,1.01,1.01,0,0,0,.627-.2ZM72.967,0h-.961V-3.457q0-1.875-1.395-1.875a1.52,1.52,0,0,0-1.184.542,2.02,2.02,0,0,0-.48,1.392V0h-.961V-8.883h.961V-5h.023a2.182,2.182,0,0,1,1.969-1.137q2.027,0,2.027,2.443ZM84.475-.574a5.619,5.619,0,0,1-2.812.715,3.843,3.843,0,0,1-2.909-1.16,4.255,4.255,0,0,1-1.11-3.07,4.369,4.369,0,0,1,1.233-3.2A4.2,4.2,0,0,1,82-8.543a5.32,5.32,0,0,1,2.3.445v1.09a4.422,4.422,0,0,0-2.414-.645,3.016,3.016,0,0,0-2.314.973,3.557,3.557,0,0,0-.9,2.52,3.559,3.559,0,0,0,.838,2.5,2.937,2.937,0,0,0,2.273.911,3.513,3.513,0,0,0,1.705-.393V-3.492H81.65v-.891h2.824ZM88.8.141A2.783,2.783,0,0,1,86.681-.7a3.114,3.114,0,0,1-.794-2.229,3.244,3.244,0,0,1,.826-2.361,2.97,2.97,0,0,1,2.232-.85,2.691,2.691,0,0,1,2.095.826,3.276,3.276,0,0,1,.753,2.291,3.223,3.223,0,0,1-.812,2.3A2.844,2.844,0,0,1,88.8.141Zm.07-5.473a1.828,1.828,0,0,0-1.465.63,2.587,2.587,0,0,0-.539,1.737,2.447,2.447,0,0,0,.545,1.682,1.852,1.852,0,0,0,1.459.615,1.757,1.757,0,0,0,1.433-.6,2.619,2.619,0,0,0,.5-1.717,2.664,2.664,0,0,0-.5-1.734A1.749,1.749,0,0,0,88.875-5.332ZM95.836.141A2.783,2.783,0,0,1,93.712-.7a3.114,3.114,0,0,1-.794-2.229,3.244,3.244,0,0,1,.826-2.361,2.97,2.97,0,0,1,2.232-.85,2.691,2.691,0,0,1,2.095.826,3.276,3.276,0,0,1,.753,2.291,3.223,3.223,0,0,1-.812,2.3A2.844,2.844,0,0,1,95.836.141Zm.07-5.473a1.828,1.828,0,0,0-1.465.63A2.587,2.587,0,0,0,93.9-2.965a2.447,2.447,0,0,0,.545,1.682,1.852,1.852,0,0,0,1.459.615,1.757,1.757,0,0,0,1.433-.6,2.619,2.619,0,0,0,.5-1.717,2.664,2.664,0,0,0-.5-1.734A1.749,1.749,0,0,0,95.906-5.332ZM105.48-.48q0,3.3-3.164,3.3a4.248,4.248,0,0,1-1.945-.422V1.441A4,4,0,0,0,102.3,2q2.215,0,2.215-2.355v-.656H104.5A2.247,2.247,0,0,1,102.434.141a2.252,2.252,0,0,1-1.8-.8,3.2,3.2,0,0,1-.683-2.147,3.735,3.735,0,0,1,.735-2.432,2.457,2.457,0,0,1,2.013-.9,1.956,1.956,0,0,1,1.8.973h.023V-6h.961Zm-.961-2.232V-3.6a1.717,1.717,0,0,0-.483-1.225,1.591,1.591,0,0,0-1.2-.51,1.669,1.669,0,0,0-1.395.647,2.89,2.89,0,0,0-.5,1.813,2.481,2.481,0,0,0,.483,1.6,1.562,1.562,0,0,0,1.28.6,1.673,1.673,0,0,0,1.315-.574A2.14,2.14,0,0,0,104.52-2.713ZM108.387,0h-.961V-8.883h.961Zm6.768-2.76h-4.236a2.244,2.244,0,0,0,.539,1.547,1.858,1.858,0,0,0,1.418.545,2.948,2.948,0,0,0,1.863-.668v.9a3.482,3.482,0,0,1-2.092.574,2.536,2.536,0,0,1-2-.817,3.346,3.346,0,0,1-.727-2.3,3.281,3.281,0,0,1,.794-2.282,2.546,2.546,0,0,1,1.972-.882,2.256,2.256,0,0,1,1.822.762,3.176,3.176,0,0,1,.645,2.115Zm-.984-.814a1.955,1.955,0,0,0-.4-1.295,1.368,1.368,0,0,0-1.1-.463,1.552,1.552,0,0,0-1.154.486,2.207,2.207,0,0,0-.586,1.271Z" transform="translate(59 31)" fill="#fff"/>
</svg>
