<svg xmlns="http://www.w3.org/2000/svg" width="69" height="15.645" viewBox="0 0 69 15.645">
  <g id="Groupe_15" data-name="Groupe 15" transform="translate(-189 -888.177)">
    <path id="icons8_facebook_f" d="M14.356,7.476h-1.88V5.911c0-.807.066-1.316,1.223-1.316h.679a.783.783,0,0,0,.782-.782V2.832a.784.784,0,0,0-.722-.786Q13.729,2,13.018,2A3.422,3.422,0,0,0,9.347,5.676v1.8H7.782A.783.783,0,0,0,7,8.258V9.823a.783.783,0,0,0,.782.782H9.347v6.259a.783.783,0,0,0,.782.782h1.565a.783.783,0,0,0,.782-.782V10.6h1.7a.782.782,0,0,0,.777-.693l.179-1.561A.782.782,0,0,0,14.356,7.476Z" transform="translate(221.663 886.177)" fill="#fff"/>
    <rect id="Rectangle_18" data-name="Rectangle 18" width="36" height="11" transform="translate(189 890)" fill="#fff" opacity="0"/>
    <rect id="Rectangle_19" data-name="Rectangle 19" width="16" height="11" transform="translate(242 890)" fill="#fff" opacity="0"/>
  </g>
</svg>
