<svg id="Groupe_3" data-name="Groupe 3" xmlns="http://www.w3.org/2000/svg" width="330" height="52" viewBox="0 0 330 52">
  <g id="Rectangle_7" data-name="Rectangle 7" fill="#060606" stroke="#707070" stroke-width="1">
    <rect width="330" height="52" rx="4" stroke="none"/>
    <rect x="0.5" y="0.5" width="329" height="51" rx="3.5" fill="none"/>
  </g>
  <path id="Tracé_13" data-name="Tracé 13" d="M6.82-.352A4.928,4.928,0,0,1,4.5.141,3.742,3.742,0,0,1,1.629-1.014,4.259,4.259,0,0,1,.551-4.043,4.464,4.464,0,0,1,1.764-7.3,4.117,4.117,0,0,1,4.84-8.543,4.932,4.932,0,0,1,6.82-8.2v1.049a4.016,4.016,0,0,0-1.992-.5,3.057,3.057,0,0,0-2.347.967,3.642,3.642,0,0,0-.9,2.584,3.465,3.465,0,0,0,.841,2.446,2.861,2.861,0,0,0,2.206.911A4.139,4.139,0,0,0,6.82-1.307Zm4.09.492A2.783,2.783,0,0,1,8.786-.7,3.114,3.114,0,0,1,7.992-2.93a3.244,3.244,0,0,1,.826-2.361,2.97,2.97,0,0,1,2.232-.85,2.691,2.691,0,0,1,2.095.826A3.276,3.276,0,0,1,13.9-3.023a3.223,3.223,0,0,1-.812,2.3A2.844,2.844,0,0,1,10.91.141Zm.07-5.473a1.828,1.828,0,0,0-1.465.63,2.587,2.587,0,0,0-.539,1.737,2.447,2.447,0,0,0,.545,1.682,1.852,1.852,0,0,0,1.459.615,1.757,1.757,0,0,0,1.433-.6,2.619,2.619,0,0,0,.5-1.717,2.664,2.664,0,0,0-.5-1.734A1.749,1.749,0,0,0,10.98-5.332ZM20.414,0h-.961V-3.422q0-1.91-1.395-1.91a1.513,1.513,0,0,0-1.192.542,2.009,2.009,0,0,0-.472,1.368V0h-.961V-6h.961v1h.023a2.166,2.166,0,0,1,1.969-1.137,1.836,1.836,0,0,1,1.506.636,2.832,2.832,0,0,1,.521,1.837Zm4.594-.059a1.853,1.853,0,0,1-.9.188q-1.576,0-1.576-1.758V-5.18H21.5V-6h1.031V-7.465l.961-.311V-6h1.512v.82H23.5V-1.8a1.4,1.4,0,0,0,.205.861.818.818,0,0,0,.68.258,1.01,1.01,0,0,0,.627-.2Zm1.775-7.465a.609.609,0,0,1-.439-.176.593.593,0,0,1-.182-.445.6.6,0,0,1,.182-.448.6.6,0,0,1,.439-.179.621.621,0,0,1,.448.179.6.6,0,0,1,.185.448.594.594,0,0,1-.185.439A.615.615,0,0,1,26.783-7.523ZM27.252,0h-.961V-6h.961Zm6.926,0h-.961V-3.422q0-1.91-1.395-1.91a1.513,1.513,0,0,0-1.192.542,2.009,2.009,0,0,0-.472,1.368V0H29.2V-6h.961v1h.023A2.166,2.166,0,0,1,32.15-6.141a1.836,1.836,0,0,1,1.506.636,2.832,2.832,0,0,1,.521,1.837ZM40.84,0h-.961V-.949h-.023A1.973,1.973,0,0,1,38,.141q-2.145,0-2.145-2.555V-6h.955v3.434q0,1.9,1.453,1.9a1.47,1.47,0,0,0,1.157-.519,1.984,1.984,0,0,0,.454-1.356V-6h.961ZM47.6-2.76H43.365A2.244,2.244,0,0,0,43.9-1.213a1.858,1.858,0,0,0,1.418.545,2.948,2.948,0,0,0,1.863-.668v.9a3.482,3.482,0,0,1-2.092.574,2.536,2.536,0,0,1-2-.817,3.346,3.346,0,0,1-.727-2.3,3.281,3.281,0,0,1,.794-2.282,2.546,2.546,0,0,1,1.972-.882,2.256,2.256,0,0,1,1.822.762A3.176,3.176,0,0,1,47.6-3.264Zm-.984-.814a1.955,1.955,0,0,0-.4-1.295,1.368,1.368,0,0,0-1.1-.463,1.552,1.552,0,0,0-1.154.486,2.207,2.207,0,0,0-.586,1.271ZM59.9-6,58.1,0h-1L55.869-4.295a2.8,2.8,0,0,1-.094-.557h-.023a2.628,2.628,0,0,1-.123.545L54.287,0h-.961L51.51-6h1.008L53.76-1.488a2.718,2.718,0,0,1,.082.539h.047a2.521,2.521,0,0,1,.105-.551L55.377-6h.879L57.5-1.477a3.229,3.229,0,0,1,.088.539h.047a2.493,2.493,0,0,1,.1-.539L58.951-6Zm1.605-1.523a.609.609,0,0,1-.439-.176.593.593,0,0,1-.182-.445.6.6,0,0,1,.182-.448.6.6,0,0,1,.439-.179.621.621,0,0,1,.448.179.6.6,0,0,1,.185.448.594.594,0,0,1-.185.439A.615.615,0,0,1,61.506-7.523ZM61.975,0h-.961V-6h.961ZM66.7-.059a1.853,1.853,0,0,1-.9.188q-1.576,0-1.576-1.758V-5.18H63.2V-6H64.23V-7.465l.961-.311V-6H66.7v.82H65.191V-1.8a1.4,1.4,0,0,0,.205.861.818.818,0,0,0,.68.258,1.01,1.01,0,0,0,.627-.2ZM72.967,0h-.961V-3.457q0-1.875-1.395-1.875a1.52,1.52,0,0,0-1.184.542,2.02,2.02,0,0,0-.48,1.392V0h-.961V-8.883h.961V-5h.023a2.182,2.182,0,0,1,1.969-1.137q2.027,0,2.027,2.443Zm9.492-7.512H79.178v2.906h3.035v.885H79.178V0h-.984V-8.4h4.266ZM87.809,0h-.961V-.937h-.023A2.012,2.012,0,0,1,84.979.141a1.973,1.973,0,0,1-1.4-.475,1.644,1.644,0,0,1-.507-1.26q0-1.682,1.98-1.957l1.8-.252q0-1.529-1.236-1.529a2.954,2.954,0,0,0-1.957.738v-.984a3.718,3.718,0,0,1,2.039-.562q2.115,0,2.115,2.238Zm-.961-3.035-1.447.2a2.35,2.35,0,0,0-1.008.331.955.955,0,0,0-.34.841.916.916,0,0,0,.313.718,1.211,1.211,0,0,0,.835.278,1.542,1.542,0,0,0,1.181-.5,1.79,1.79,0,0,0,.466-1.269Zm6.861,2.76a3.122,3.122,0,0,1-1.641.416A2.716,2.716,0,0,1,90-.694a3.026,3.026,0,0,1-.788-2.165,3.326,3.326,0,0,1,.85-2.382,2.972,2.972,0,0,1,2.268-.9,3.156,3.156,0,0,1,1.395.293v.984a2.443,2.443,0,0,0-1.43-.469,1.932,1.932,0,0,0-1.509.659,2.5,2.5,0,0,0-.589,1.731,2.382,2.382,0,0,0,.554,1.664,1.909,1.909,0,0,0,1.485.609,2.408,2.408,0,0,0,1.477-.521ZM99.984-2.76H95.748a2.244,2.244,0,0,0,.539,1.547,1.858,1.858,0,0,0,1.418.545,2.948,2.948,0,0,0,1.863-.668v.9a3.482,3.482,0,0,1-2.092.574,2.536,2.536,0,0,1-2-.817,3.346,3.346,0,0,1-.727-2.3,3.281,3.281,0,0,1,.794-2.282,2.546,2.546,0,0,1,1.972-.882,2.256,2.256,0,0,1,1.822.762,3.176,3.176,0,0,1,.645,2.115ZM99-3.574a1.955,1.955,0,0,0-.4-1.295,1.368,1.368,0,0,0-1.1-.463,1.552,1.552,0,0,0-1.154.486,2.207,2.207,0,0,0-.586,1.271Zm3.422,2.707H102.4V0h-.961V-8.883h.961v3.938h.023a2.272,2.272,0,0,1,2.074-1.2,2.2,2.2,0,0,1,1.808.806,3.327,3.327,0,0,1,.653,2.159,3.719,3.719,0,0,1-.732,2.411,2.439,2.439,0,0,1-2,.905A1.974,1.974,0,0,1,102.422-.867Zm-.023-2.42v.838a1.784,1.784,0,0,0,.483,1.263,1.605,1.605,0,0,0,1.228.519,1.608,1.608,0,0,0,1.368-.668,3.064,3.064,0,0,0,.5-1.857,2.419,2.419,0,0,0-.463-1.57,1.532,1.532,0,0,0-1.254-.568,1.7,1.7,0,0,0-1.348.583A2.141,2.141,0,0,0,102.4-3.287ZM111,.141A2.783,2.783,0,0,1,108.876-.7a3.114,3.114,0,0,1-.794-2.229,3.244,3.244,0,0,1,.826-2.361,2.97,2.97,0,0,1,2.232-.85,2.691,2.691,0,0,1,2.095.826,3.276,3.276,0,0,1,.753,2.291,3.223,3.223,0,0,1-.812,2.3A2.844,2.844,0,0,1,111,.141Zm.07-5.473a1.828,1.828,0,0,0-1.465.63,2.587,2.587,0,0,0-.539,1.737,2.447,2.447,0,0,0,.545,1.682,1.852,1.852,0,0,0,1.459.615,1.757,1.757,0,0,0,1.433-.6,2.619,2.619,0,0,0,.5-1.717,2.664,2.664,0,0,0-.5-1.734A1.749,1.749,0,0,0,111.07-5.332ZM118.031.141A2.783,2.783,0,0,1,115.907-.7a3.114,3.114,0,0,1-.794-2.229,3.244,3.244,0,0,1,.826-2.361,2.97,2.97,0,0,1,2.232-.85,2.691,2.691,0,0,1,2.095.826,3.276,3.276,0,0,1,.753,2.291,3.223,3.223,0,0,1-.812,2.3A2.844,2.844,0,0,1,118.031.141Zm.07-5.473a1.828,1.828,0,0,0-1.465.63,2.587,2.587,0,0,0-.539,1.737,2.447,2.447,0,0,0,.545,1.682,1.852,1.852,0,0,0,1.459.615,1.757,1.757,0,0,0,1.433-.6,2.619,2.619,0,0,0,.5-1.717,2.664,2.664,0,0,0-.5-1.734A1.749,1.749,0,0,0,118.1-5.332ZM127.535,0h-1.348l-2.648-2.883h-.023V0h-.961V-8.883h.961v5.631h.023L126.059-6h1.26l-2.783,2.895Z" transform="translate(59 31)" fill="#fff"/>
  <path id="icons8_facebook_f" d="M14.356,7.476h-1.88V5.911c0-.807.066-1.316,1.223-1.316h.679a.783.783,0,0,0,.782-.782V2.832a.784.784,0,0,0-.722-.786Q13.729,2,13.018,2A3.422,3.422,0,0,0,9.347,5.676v1.8H7.782A.783.783,0,0,0,7,8.258V9.823a.783.783,0,0,0,.782.782H9.347v6.259a.783.783,0,0,0,.782.782h1.565a.783.783,0,0,0,.782-.782V10.6h1.7a.782.782,0,0,0,.777-.693l.179-1.561A.782.782,0,0,0,14.356,7.476Z" transform="translate(18 16.177)" fill="#fff"/>
</svg>
