<svg xmlns="http://www.w3.org/2000/svg" width="237" height="6.281" viewBox="0 0 237 6.281">
  <g id="Groupe_14" data-name="Groupe 14" transform="translate(-87.5 -642)">
    <path id="Tracé_11" data-name="Tracé 11" d="M3.48.141A2.783,2.783,0,0,1,1.356-.7,3.114,3.114,0,0,1,.563-2.93a3.244,3.244,0,0,1,.826-2.361,2.97,2.97,0,0,1,2.232-.85,2.691,2.691,0,0,1,2.095.826,3.276,3.276,0,0,1,.753,2.291,3.223,3.223,0,0,1-.812,2.3A2.844,2.844,0,0,1,3.48.141Zm.07-5.473a1.828,1.828,0,0,0-1.465.63,2.587,2.587,0,0,0-.539,1.737,2.447,2.447,0,0,0,.545,1.682,1.852,1.852,0,0,0,1.459.615,1.757,1.757,0,0,0,1.433-.6,2.619,2.619,0,0,0,.5-1.717,2.664,2.664,0,0,0-.5-1.734A1.749,1.749,0,0,0,3.551-5.332Zm7.582.3a1.175,1.175,0,0,0-.727-.193,1.226,1.226,0,0,0-1.028.58,2.682,2.682,0,0,0-.413,1.582V0H8V-6h.961v1.236h.023a2.1,2.1,0,0,1,.627-.987,1.43,1.43,0,0,1,.943-.354,1.569,1.569,0,0,1,.574.082Z" transform="translate(201 648.141)"/>
    <line id="Ligne_1" data-name="Ligne 1" x2="98" transform="translate(87.5 645.5)" fill="none" stroke="#000" stroke-width="1"/>
    <line id="Ligne_2" data-name="Ligne 2" x2="98" transform="translate(226.5 645.5)" fill="none" stroke="#000" stroke-width="1"/>
  </g>
</svg>
