<svg xmlns="http://www.w3.org/2000/svg" width="46.975" height="46.975" viewBox="0 0 46.975 46.975">
  <path id="icons8_Circle_Chart" d="M48.9,13.5A22.2,22.2,0,0,0,36.5,1.1a1.09,1.09,0,0,0-.8,0,1.188,1.188,0,0,0-.5.5l-1,2.3a24.057,24.057,0,0,0-8-1.9H25A23,23,0,0,0,2,25v1.1A23.059,23.059,0,0,0,25,48a22.643,22.643,0,0,0,15.5-6.1L23.6,25H4A21,21,0,0,1,25,4V23.6L41.9,40.5A22.643,22.643,0,0,0,48,25a24.04,24.04,0,0,0-1.9-9.2l2.3-1a1.187,1.187,0,0,0,.5-.5A1.09,1.09,0,0,0,48.9,13.5Zm-4.6.8h0L29.5,20.4,36.6,3.3a20.67,20.67,0,0,1,10,10Z" transform="translate(-2 -1.025)" fill="#ffffff"/>
</svg>
