<?xml version="1.0" encoding="utf-8"?>
<!-- Generator: Adobe Illustrator 15.0.2, SVG Export Plug-In . SVG Version: 6.00 Build 0)  -->
<!DOCTYPE svg PUBLIC "-//W3C//DTD SVG 1.1//EN" "http://www.w3.org/Graphics/SVG/1.1/DTD/svg11.dtd">
<svg version="1.1" id="Calque_1" xmlns="http://www.w3.org/2000/svg" xmlns:xlink="http://www.w3.org/1999/xlink" x="0px" y="0px"
	 width="36px" height="144px" viewBox="0 0 36 144" enable-background="new 0 0 36 144" xml:space="preserve">
<rect fill="#607D8B" fill-opacity="0" width="36" height="144"/>
<circle fill="#2196F3" cx="18.001" cy="18" r="16"/>
<g>
	<path fill="none" stroke="#FFFFFF" stroke-width="1.1547" stroke-miterlimit="10" d="M6.001,18c0,0,0-2.5,2-2.5s2,2.5,2,2.5"/>
	<path fill="none" stroke="#FFFFFF" stroke-width="1.1547" stroke-miterlimit="10" d="M14.001,18c0,0,0,2.5-2,2.5s-2-2.5-2-2.5"/>
	<path fill="none" stroke="#FFFFFF" stroke-width="1.1547" stroke-miterlimit="10" d="M14.001,18c0,0,0-2.5,2-2.5s2,2.5,2,2.5"/>
	<path fill="none" stroke="#FFFFFF" stroke-width="1.1547" stroke-miterlimit="10" d="M22.001,18c0,0,0,2.5-2,2.5s-2-2.5-2-2.5"/>
	<path fill="none" stroke="#FFFFFF" stroke-width="1.1547" stroke-miterlimit="10" d="M22.001,18c0,0,0-2.5,2-2.5
		C26,15.5,26,18,26,18"/>
	<path fill="none" stroke="#FFFFFF" stroke-width="1.1547" stroke-miterlimit="10" d="M30,18c0,0,0,2.5-2,2.5S26,18,26,18"/>
</g>
<circle fill="#2196F3" cx="18.001" cy="54" r="16"/>
<g>
	<g>
		<path fill="none" stroke="#FFFFFF" stroke-width="1.1547" stroke-miterlimit="10" d="M6.001,51.5c2,0,2,2.5,2,2.5"/>
		<path fill="none" stroke="#FFFFFF" stroke-width="1.1547" stroke-miterlimit="10" d="M12.001,54c0,0,0,2.5-2,2.5s-2-2.5-2-2.5"/>
		<path fill="none" stroke="#FFFFFF" stroke-width="1.1547" stroke-miterlimit="10" d="M12.001,54c0,0,0-2.5,2-2.5s2,2.5,2,2.5"/>
		<path fill="none" stroke="#FFFFFF" stroke-width="1.1547" stroke-miterlimit="10" d="M20.001,54c0,0,0,2.5-2,2.5s-2-2.5-2-2.5"/>
		<path fill="none" stroke="#FFFFFF" stroke-width="1.1547" stroke-miterlimit="10" d="M20.001,54c0,0,0-2.5,2-2.5
			C24,51.5,24,54,24,54"/>
		<path fill="none" stroke="#FFFFFF" stroke-width="1.1547" stroke-miterlimit="10" d="M28,54c0,0,0,2.5-2,2.5S24,54,24,54"/>
	</g>
	<path fill="none" stroke="#FFFFFF" stroke-width="1.1547" stroke-miterlimit="10" d="M27.999,54c0,0,0-2.5,2-2.5"/>
</g>
<circle fill="#2196F3" cx="18.001" cy="90" r="16"/>
<path fill="none" stroke="#FFFFFF" stroke-width="1.1547" stroke-miterlimit="10" d="M28.001,87.5c2,0,2,2.5,2,2.5"/>
<path fill="none" stroke="#FFFFFF" stroke-width="1.1547" stroke-miterlimit="10" d="M10.002,90c0,0,0,2.5-2,2.5s-2-2.5-2-2.5"/>
<path fill="none" stroke="#FFFFFF" stroke-width="1.1547" stroke-miterlimit="10" d="M10.002,90c0,0,0-2.5,2-2.5s2,2.5,2,2.5"/>
<path fill="none" stroke="#FFFFFF" stroke-width="1.1547" stroke-miterlimit="10" d="M18.002,90c0,0,0,2.5-2,2.5s-2-2.5-2-2.5"/>
<path fill="none" stroke="#FFFFFF" stroke-width="1.1547" stroke-miterlimit="10" d="M18.002,90c0,0,0-2.5,2-2.5
	c1.999,0,1.999,2.5,1.999,2.5"/>
<path fill="none" stroke="#FFFFFF" stroke-width="1.1547" stroke-miterlimit="10" d="M26.001,90c0,0,0,2.5-2,2.5s-2-2.5-2-2.5"/>
<path fill="none" stroke="#FFFFFF" stroke-width="1.1547" stroke-miterlimit="10" d="M26.001,90c0,0,0-2.5,2-2.5"/>
<circle fill="#2196F3" cx="18.001" cy="126" r="16"/>
<path fill="none" stroke="#FFFFFF" stroke-width="1.1547" stroke-miterlimit="10" d="M26.001,123.5c2,0,2,2.5,2,2.5"/>
<path fill="none" stroke="#FFFFFF" stroke-width="1.1547" stroke-miterlimit="10" d="M8.003,126c0,0,0,2.5-2,2.5"/>
<path fill="none" stroke="#FFFFFF" stroke-width="1.1547" stroke-miterlimit="10" d="M8.003,126c0,0,0-2.5,2-2.5s2,2.5,2,2.5"/>
<path fill="none" stroke="#FFFFFF" stroke-width="1.1547" stroke-miterlimit="10" d="M16.003,126c0,0,0,2.5-2,2.5s-2-2.5-2-2.5"/>
<path fill="none" stroke="#FFFFFF" stroke-width="1.1547" stroke-miterlimit="10" d="M16.003,126c0,0,0-2.5,2-2.5
	c1.999,0,1.999,2.5,1.999,2.5"/>
<path fill="none" stroke="#FFFFFF" stroke-width="1.1547" stroke-miterlimit="10" d="M24.001,126c0,0,0,2.5-2,2.5s-2-2.5-2-2.5"/>
<path fill="none" stroke="#FFFFFF" stroke-width="1.1547" stroke-miterlimit="10" d="M24.001,126c0,0,0-2.5,2-2.5"/>
<path fill="none" stroke="#FFFFFF" stroke-width="1.1547" stroke-miterlimit="10" d="M30.003,128.5c-2,0-2-2.5-2-2.5"/>
</svg>
