<?xml version="1.0" encoding="UTF-8" standalone="no"?>
<!DOCTYPE svg PUBLIC "-//W3C//DTD SVG 1.1//EN" "http://www.w3.org/Graphics/SVG/1.1/DTD/svg11.dtd">
<svg xmlns="http://www.w3.org/2000/svg" version="1.1" viewBox="0.00 0.00 1709.00 256.00">
<path fill="#ffffff" d="
  M 1360.87 0.00
  L 1362.52 0.00
  C 1367.08 2.86 1369.67 10.34 1371.56 15.14
  Q 1375.14 24.19 1375.98 26.08
  Q 1426.37 138.78 1476.70 250.32
  Q 1478.85 255.09 1473.61 255.11
  Q 1464.06 255.15 1453.75 255.11
  Q 1450.25 255.09 1449.03 252.27
  Q 1435.77 221.43 1422.32 190.69
  C 1419.32 183.83 1415.03 177.58 1407.57 175.70
  Q 1404.82 175.01 1397.38 175.00
  Q 1356.44 174.97 1315.50 175.04
  Q 1308.02 175.05 1303.07 179.92
  Q 1300.45 182.49 1296.59 190.72
  Q 1283.05 219.62 1269.55 248.51
  C 1268.16 251.49 1267.44 255.08 1263.50 255.10
  Q 1253.00 255.16 1242.50 255.18
  C 1239.13 255.19 1238.17 252.63 1239.47 249.88
  Q 1295.28 131.60 1351.06 13.30
  C 1353.34 8.46 1356.18 2.84 1360.87 0.00
  Z
  M 1360.60 49.91
  Q 1339.47 96.96 1318.71 141.73
  C 1317.10 145.20 1318.46 148.74 1322.25 148.74
  Q 1358.12 148.75 1393.99 148.76
  C 1400.82 148.76 1401.75 145.80 1399.24 139.85
  Q 1380.15 94.64 1361.50 49.92
  Q 1361.06 48.88 1360.60 49.91
  Z"
/>
<path fill="#ffffff" d="
  M 399.72 18.55
  Q 429.61 55.37 459.34 92.14
  A 0.45 0.45 0.0 0 1 459.27 92.77
  L 439.27 108.80
  A 0.52 0.52 0.0 0 1 438.54 108.73
  L 354.63 5.34
  A 1.38 1.32 39.6 0 1 354.46 3.87
  Q 354.65 3.50 355.50 3.50
  Q 369.81 3.51 384.13 3.42
  Q 386.91 3.40 388.74 5.50
  Q 394.34 11.93 399.72 18.55
  Z"
/>
<path fill="#ffffff" d="
  M 485.07 92.08
  C 508.61 63.02 532.07 34.06 555.73 5.23
  Q 557.46 3.11 561.25 3.14
  Q 575.12 3.22 588.92 3.28
  Q 590.23 3.28 590.29 4.59
  Q 590.29 4.77 589.83 5.34
  Q 547.87 57.03 505.79 108.81
  A 0.48 0.48 0.0 0 1 505.12 108.88
  L 485.13 92.61
  A 0.38 0.37 39.1 0 1 485.07 92.08
  Z"
/>
<path fill="#ffffff" d="
  M 1709.00 3.49
  L 1709.00 4.50
  Q 1708.69 5.05 1708.27 5.57
  Q 1664.92 59.42 1621.32 113.07
  Q 1614.60 121.33 1607.75 129.49
  C 1602.08 136.22 1597.50 144.23 1597.50 153.14
  Q 1597.50 201.81 1597.50 250.63
  A 4.47 4.47 0.0 0 1 1593.05 255.10
  Q 1584.19 255.13 1574.87 255.26
  C 1570.50 255.32 1571.25 250.57 1571.24 247.75
  Q 1571.12 203.82 1571.13 159.89
  C 1571.13 150.07 1571.56 144.63 1567.18 137.81
  Q 1563.10 131.45 1555.69 122.31
  Q 1508.50 64.12 1460.78 5.68
  Q 1459.95 4.66 1460.96 3.80
  Q 1461.68 3.19 1463.38 3.23
  Q 1476.94 3.51 1490.51 3.39
  Q 1492.91 3.37 1494.57 5.43
  Q 1538.89 60.36 1583.85 116.11
  Q 1584.36 116.74 1584.87 116.12
  Q 1629.90 60.91 1675.26 5.30
  Q 1676.79 3.42 1680.50 3.42
  Q 1694.75 3.44 1709.00 3.49
  Z"
/>
<path fill="#ffffff" d="
  M 0.00 250.87
  L 0.00 7.77
  Q 1.44 3.66 4.75 3.67
  Q 66.63 3.70 128.51 3.69
  Q 142.41 3.68 148.44 4.64
  Q 175.03 8.87 191.44 30.54
  C 205.74 49.43 208.63 75.92 204.21 99.00
  C 199.24 124.93 182.53 142.63 156.51 147.80
  C 148.52 149.38 141.42 149.86 132.45 149.87
  C 97.27 149.88 62.08 149.97 26.89 150.00
  Q 26.34 150.00 26.34 150.55
  Q 26.27 200.29 26.33 250.00
  Q 26.34 254.77 21.74 254.90
  Q 13.50 255.15 5.24 255.11
  Q 0.80 255.09 0.00 250.87
  Z
  M 173.59 105.26
  C 187.93 79.86 179.86 38.66 147.29 31.49
  Q 142.18 30.36 127.39 30.37
  Q 77.12 30.39 26.92 30.37
  A 0.61 0.60 0.0 0 0 26.31 30.97
  L 26.31 125.48
  A 0.29 0.28 0.0 0 0 26.60 125.76
  Q 81.23 125.75 135.75 125.67
  C 151.26 125.64 166.17 118.41 173.59 105.26
  Z"
/>
<rect fill="#ffffff" x="267.63" y="3.67" width="27.24" height="251.44" rx="2.89"/>
<rect fill="#ffffff" x="641.50" y="3.67" width="27.38" height="251.44" rx="2.99"/>
<path fill="#ffffff" d="
  M 765.32 110.94
  Q 821.01 111.12 876.71 111.12
  C 885.48 111.12 885.26 114.92 885.32 122.60
  Q 885.34 125.93 885.41 129.28
  C 885.58 137.34 880.36 136.86 873.85 136.86
  Q 819.52 136.89 765.20 136.87
  Q 764.59 136.87 764.59 137.48
  L 764.76 228.72
  Q 764.76 229.18 765.23 229.19
  Q 843.12 229.46 921.00 229.58
  Q 927.37 229.59 927.48 236.02
  Q 927.59 242.37 927.51 248.77
  Q 927.43 254.89 921.25 254.89
  Q 833.62 254.89 746.00 254.86
  C 738.93 254.86 738.37 251.06 738.37 244.89
  Q 738.35 128.25 738.38 11.63
  Q 738.38 7.99 739.70 6.20
  Q 741.68 3.51 745.25 3.51
  Q 832.88 3.49 920.50 3.50
  C 925.66 3.50 927.38 5.14 927.33 10.26
  Q 927.26 18.42 927.36 26.12
  A 4.36 4.35 89.6 0 1 923.02 30.53
  L 765.17 30.92
  A 0.29 0.29 0.0 0 0 764.88 31.21
  L 764.87 110.49
  Q 764.87 110.94 765.32 110.94
  Z"
/>
<path fill="#ffffff" d="
  M 1123.55 150.33
  A 0.38 0.37 69.2 0 0 1123.28 150.94
  Q 1163.44 200.65 1203.91 250.08
  Q 1205.06 251.48 1205.18 253.08
  A 1.53 1.51 87.3 0 1 1203.70 254.72
  Q 1190.67 254.97 1177.63 255.13
  C 1174.95 255.16 1173.30 253.86 1171.54 251.72
  Q 1135.50 207.67 1099.96 163.22
  Q 1093.93 155.68 1090.31 153.53
  C 1084.52 150.08 1079.85 150.40 1071.60 150.40
  Q 1046.68 150.37 1021.75 150.44
  C 1016.69 150.45 1015.76 153.58 1015.71 158.12
  Q 1015.20 204.31 1014.70 250.50
  Q 1014.65 254.99 1009.49 255.06
  Q 1001.64 255.16 993.75 255.21
  Q 989.29 255.25 989.29 250.75
  Q 989.25 129.63 989.32 8.50
  C 989.32 4.14 992.14 3.70 995.92 3.70
  Q 1064.40 3.66 1132.87 3.67
  C 1163.32 3.68 1186.28 27.76 1192.67 56.00
  C 1198.17 80.29 1194.60 106.49 1177.86 125.51
  C 1164.26 140.98 1144.12 149.58 1123.55 150.33
  Z
  M 1168.37 84.62
  C 1171.00 60.69 1162.82 38.19 1137.26 31.90
  Q 1129.05 29.88 1121.75 29.88
  Q 1068.79 29.88 1015.87 29.87
  Q 1015.50 29.87 1015.50 30.24
  L 1015.50 123.99
  A 0.18 0.18 0.0 0 0 1015.68 124.17
  Q 1063.86 124.13 1112.00 123.86
  C 1138.59 123.71 1165.00 115.44 1168.37 84.62
  Z"
/>
<path fill="#ffffff" d="
  M 354.20 253.44
  L 439.38 148.14
  A 0.57 0.57 0.0 0 1 440.18 148.06
  L 460.17 164.34
  Q 460.41 164.54 460.22 164.78
  Q 423.63 209.97 388.69 253.18
  C 387.68 254.42 385.40 254.99 383.62 254.99
  Q 369.27 255.02 355.03 254.99
  A 1.00 0.94 18.6 0 1 354.20 253.44
  Z"
/>
<path fill="#ffffff" d="
  M 505.68 148.84
  Q 547.66 200.85 589.57 252.92
  Q 590.00 253.45 590.14 253.91
  A 0.84 0.84 0.0 0 1 589.33 254.99
  Q 574.14 255.01 559.50 255.00
  C 558.03 254.99 556.05 253.67 555.00 252.37
  Q 519.67 208.68 484.38 165.13
  Q 483.88 164.51 484.50 164.02
  L 504.23 148.23
  A 0.75 0.74 -39.9 0 1 505.26 148.32
  Q 505.41 148.50 505.68 148.84
  Z"
/>
</svg>
